<?xml version="1.0" standalone="no"?>
<!DOCTYPE svg PUBLIC "-//W3C//DTD SVG 20010904//EN"
 "http://www.w3.org/TR/2001/REC-SVG-20010904/DTD/svg10.dtd">
<svg version="1.0" xmlns="http://www.w3.org/2000/svg"
 width="672.000000pt" height="675.000000pt" viewBox="0 0 672.000000 675.000000"
 preserveAspectRatio="xMidYMid meet">
<metadata>
Created by potrace 1.10, written by Peter Selinger 2001-2011
</metadata>
<g transform="translate(0.000000,675.000000) scale(0.100000,-0.100000)"
fill="#000000" stroke="none">
<path d="M3155 4595 c-27 -7 -66 -14 -86 -14 -20 -1 -53 -8 -72 -16 -20 -8
-47 -15 -61 -15 -13 0 -37 -7 -52 -15 -16 -8 -37 -15 -46 -15 -10 0 -32 -6
-50 -14 -18 -8 -53 -22 -78 -31 -25 -10 -72 -30 -105 -45 -33 -15 -67 -31 -75
-34 -8 -3 -22 -10 -30 -15 -8 -5 -22 -12 -30 -16 -8 -3 -24 -11 -35 -18 -11
-7 -46 -28 -79 -47 -32 -19 -70 -43 -85 -53 -14 -9 -34 -20 -43 -23 -10 -4
-18 -10 -18 -15 0 -6 -8 -13 -17 -16 -25 -9 -175 -123 -253 -191 -76 -66 -365
-353 -432 -428 -72 -82 -138 -171 -153 -208 -13 -31 -13 -41 1 -83 9 -26 22
-52 29 -58 6 -5 34 -39 61 -75 63 -84 390 -411 474 -474 36 -27 70 -54 75 -60
27 -31 306 -226 323 -226 10 0 40 35 80 95 19 28 37 52 41 55 4 3 19 21 34 41
l27 36 -23 21 c-13 12 -26 22 -30 22 -17 0 -306 212 -387 284 -124 110 -360
358 -360 378 0 36 222 274 392 419 45 39 99 85 118 101 19 17 53 42 75 56 22
14 43 29 46 34 7 11 46 35 72 44 9 3 17 10 17 15 0 5 10 14 23 19 12 6 36 19
52 30 17 11 39 24 50 30 21 11 37 19 70 38 11 7 27 15 35 18 8 3 22 10 30 15
8 5 22 12 30 15 15 5 40 16 113 48 21 9 45 16 55 16 9 0 26 7 36 15 11 8 28
15 39 15 11 0 40 7 66 15 131 41 202 49 431 49 243 0 348 -15 525 -76 17 -5
45 -14 64 -18 18 -5 38 -13 44 -19 6 -6 21 -11 33 -11 12 0 27 -7 34 -15 7 -8
19 -15 28 -15 16 0 193 -87 247 -121 17 -10 39 -23 50 -29 11 -6 32 -18 46
-28 15 -9 47 -30 73 -45 25 -16 46 -33 46 -38 0 -5 5 -9 11 -9 11 0 83 -52
104 -74 6 -6 39 -33 75 -61 109 -83 430 -401 430 -426 0 -25 -279 -318 -400
-420 -36 -30 -67 -57 -70 -60 -26 -31 -304 -225 -386 -269 -21 -12 -47 -25
-56 -31 -10 -5 -26 -14 -35 -19 -10 -6 -25 -13 -33 -16 -8 -4 -38 -17 -66 -30
-56 -25 -124 -51 -169 -64 -16 -4 -43 -13 -60 -19 -66 -22 -139 -41 -161 -41
-13 0 -49 -7 -81 -15 -40 -10 -109 -15 -228 -15 -160 0 -257 10 -380 41 -22 6
-58 14 -80 18 -22 4 -50 13 -62 19 -37 20 -48 14 -93 -48 -24 -33 -47 -60 -52
-60 -4 0 -8 -5 -8 -11 0 -6 -13 -28 -30 -49 -38 -49 -39 -78 -2 -86 15 -3 38
-10 52 -16 14 -6 41 -14 60 -19 49 -11 116 -28 176 -45 28 -8 68 -14 90 -14
21 0 75 -7 119 -15 106 -19 261 -19 415 1 116 14 160 23 280 54 25 6 61 15 80
20 46 11 98 29 132 46 14 8 35 14 46 14 11 0 25 7 32 15 7 8 19 15 27 15 8 0
27 6 41 14 15 8 47 24 72 36 25 12 72 37 105 55 33 19 67 37 75 41 8 4 44 28
80 53 36 24 85 58 110 75 25 16 47 33 50 37 3 3 34 29 70 56 36 28 88 70 115
94 77 67 344 336 411 413 32 37 64 73 70 80 6 6 27 35 47 63 30 43 37 62 37
101 0 51 -19 86 -94 173 -17 20 -53 61 -79 92 -95 111 -273 283 -395 382 -34
28 -62 53 -62 58 0 4 -5 7 -10 7 -14 0 -110 72 -110 82 0 4 -5 8 -11 8 -6 0
-28 14 -49 30 -21 17 -41 30 -45 30 -3 0 -22 12 -41 26 -34 27 -92 61 -149 90
-16 8 -43 23 -60 34 -16 11 -37 22 -45 26 -8 3 -22 10 -30 15 -8 5 -22 12 -30
15 -8 3 -31 12 -50 21 -19 8 -48 21 -65 28 -16 6 -47 20 -68 29 -21 9 -46 16
-55 16 -10 0 -26 6 -37 14 -11 7 -33 16 -50 18 -16 3 -43 10 -60 16 -48 17
-115 32 -185 42 -36 5 -81 14 -100 20 -51 15 -502 11 -565 -5z"/>
<path d="M3315 4265 c-27 -8 -60 -14 -72 -15 -12 0 -39 -7 -60 -16 -94 -40
-109 -47 -123 -55 -8 -5 -22 -12 -30 -15 -40 -15 -138 -85 -196 -142 -56 -53
-156 -182 -173 -222 -6 -14 -15 -32 -20 -40 -27 -48 -61 -144 -71 -201 -5 -26
-13 -64 -19 -85 -24 -88 -4 -329 35 -421 8 -17 14 -36 14 -42 0 -11 61 -141
83 -176 21 -34 70 -99 89 -118 28 -27 22 -51 -22 -91 -39 -35 -41 -36 -70 -21
-23 12 -34 13 -52 4 -13 -6 -79 -74 -148 -151 -69 -77 -151 -167 -182 -200
-32 -33 -126 -135 -210 -226 -83 -92 -170 -185 -193 -207 -104 -105 -195 -217
-195 -241 0 -17 16 -39 51 -72 28 -26 62 -57 76 -69 50 -47 55 -43 329 251 5
6 57 63 114 126 57 63 122 134 144 156 23 23 57 59 76 80 129 143 251 275 287
312 51 51 62 85 39 111 -10 11 -14 25 -10 36 7 18 70 85 80 85 4 0 23 -12 43
-27 67 -51 192 -115 248 -127 18 -4 35 -12 38 -17 4 -5 19 -9 35 -9 16 0 55
-7 87 -15 65 -17 209 -19 268 -4 22 5 63 14 90 18 63 11 99 24 203 74 225 108
408 321 479 557 21 70 42 208 43 281 0 113 -28 266 -65 354 -66 155 -152 277
-254 360 -36 30 -73 60 -82 67 -62 50 -223 122 -309 139 -25 5 -63 13 -85 18
-58 15 -251 12 -310 -4z m330 -241 c45 -15 95 -33 135 -48 22 -8 45 -24 128
-85 80 -59 163 -160 202 -246 12 -27 27 -59 33 -70 6 -11 14 -40 18 -65 5 -25
13 -74 19 -109 19 -103 -20 -294 -79 -392 -12 -19 -25 -44 -31 -56 -5 -13 -14
-23 -20 -23 -5 0 -10 -6 -10 -13 0 -20 -153 -162 -201 -186 -24 -12 -51 -26
-59 -30 -34 -19 -92 -41 -108 -41 -9 0 -35 -7 -57 -15 -81 -29 -282 -12 -368
31 -16 8 -36 14 -46 14 -9 0 -22 5 -28 11 -13 13 -47 33 -82 49 -32 14 -177
160 -191 191 -6 13 -19 38 -30 54 -11 17 -22 37 -26 45 -3 8 -11 29 -18 45
-44 101 -60 307 -31 410 36 129 109 260 189 341 69 68 244 173 294 175 9 0 33
7 52 14 52 20 252 19 315 -1z"/>
<path d="M3365 3868 c-75 -14 -170 -58 -223 -103 -102 -87 -153 -160 -193
-277 -25 -74 -27 -250 -3 -318 64 -184 188 -312 359 -372 72 -26 270 -25 343
1 29 10 58 23 65 30 6 6 17 11 24 11 38 0 213 171 213 207 0 5 5 14 12 21 19
19 39 81 54 172 13 70 13 99 3 165 -6 44 -17 94 -24 110 -8 17 -16 37 -20 45
-16 41 -92 145 -127 175 -40 35 -136 95 -150 95 -8 0 -19 5 -25 11 -15 15
-148 39 -208 38 -27 -1 -72 -6 -100 -11z"/>
</g>
</svg>
